<?xml version="1.0" standalone="no"?>
<!DOCTYPE svg PUBLIC "-//W3C//DTD SVG 20010904//EN"
 "http://www.w3.org/TR/2001/REC-SVG-20010904/DTD/svg10.dtd">
<svg version="1.0" xmlns="http://www.w3.org/2000/svg"
 width="960.000000pt" height="960.000000pt" viewBox="0 0 960.000000 960.000000"
 preserveAspectRatio="xMidYMid meet">
<metadata>
Created by potrace 1.13, written by Peter Selinger 2001-2015
</metadata>
<g transform="translate(0.000000,960.000000) scale(0.100000,-0.100000)"
fill="#000000" stroke="none">
<path d="M0 4800 l0 -4800 1543 1 c996 1 1527 4 1500 11 -39 8 -41 11 -30 29
6 10 15 19 19 19 5 0 8 7 8 15 0 9 6 12 15 9 11 -5 13 -2 9 10 -4 11 -1 16 10
16 20 0 20 -9 0 -31 -17 -19 -11 -39 12 -39 8 0 14 -9 14 -20 0 -18 7 -20 59
-20 47 0 60 4 66 18 6 16 7 16 19 0 11 -15 67 -16 636 -17 569 -1 623 0 603
14 -15 10 -31 13 -50 9 -25 -7 -27 -6 -14 9 11 14 11 21 -3 42 -18 27 -32 34
-23 12 3 -7 -4 -19 -14 -25 -21 -14 -25 -3 -6 17 10 11 8 13 -10 8 -16 -3 -23
-1 -23 9 0 8 -5 13 -11 12 -6 -2 -14 3 -16 10 -3 6 1 12 7 12 10 0 10 3 0 15
-6 8 -9 19 -5 25 3 5 1 10 -6 10 -7 0 -9 -10 -6 -26 3 -19 1 -24 -10 -20 -8 3
-17 6 -19 6 -2 0 -4 7 -4 15 0 8 -4 15 -10 15 -5 0 -7 -6 -4 -13 3 -8 -2 -14
-11 -14 -11 0 -15 6 -11 20 4 16 1 18 -21 14 -19 -3 -27 0 -30 14 -3 10 -9 17
-13 14 -4 -3 -11 2 -14 10 -4 13 -10 14 -26 5 -17 -9 -20 -8 -17 12 1 17 -3
23 -17 21 -10 -1 -31 12 -46 29 -19 21 -29 26 -32 17 -4 -11 -8 -10 -22 4 -10
9 -23 17 -30 17 -7 0 -19 11 -26 25 -9 18 -19 23 -32 19 -13 -4 -16 -1 -12 10
3 9 2 16 -4 16 -6 0 -12 -6 -15 -12 -2 -7 -8 -10 -12 -6 -4 4 -3 14 4 22 10
12 6 13 -25 6 -20 -5 -43 -6 -50 -3 -26 10 -14 -16 16 -33 21 -13 26 -20 17
-26 -18 -12 -27 -10 -27 7 0 8 -7 15 -15 15 -7 0 -18 8 -23 17 -11 19 -42 27
-42 10 0 -7 -5 -5 -10 3 -8 13 -10 12 -10 -2 0 -11 -8 -18 -20 -18 -11 0 -20
4 -20 10 0 5 -7 6 -17 3 -11 -5 -14 -3 -8 6 6 10 2 11 -15 6 -15 -5 -20 -4
-16 4 4 6 3 11 -3 11 -5 0 -15 -8 -20 -17 -9 -16 -12 -16 -21 -3 -5 8 -10 11
-10 5 0 -5 -5 -3 -10 5 -5 8 -7 23 -4 32 7 23 -5 45 -16 29 -10 -18 -70 19
-70 43 0 16 -2 18 -12 7 -11 -10 -9 -16 10 -31 23 -19 29 -40 12 -40 -5 0 -14
8 -19 17 -8 14 -10 15 -11 3 -1 -46 -50 -48 -50 -3 0 18 4 24 15 20 18 -7 30
9 13 16 -9 4 -5 12 12 26 14 11 20 21 14 21 -6 0 -21 -11 -34 -25 -27 -29 -42
-32 -34 -7 5 14 4 15 -5 2 -5 -8 -7 -26 -4 -40 6 -22 5 -24 -10 -11 -10 7 -17
19 -17 27 0 7 -8 18 -17 23 -17 10 -17 12 -1 25 25 19 22 29 -7 24 -14 -3 -28
-1 -31 3 -3 5 -10 9 -15 9 -6 0 -3 -7 5 -16 9 -8 16 -21 16 -28 0 -7 9 -21 20
-31 31 -28 25 -45 -15 -43 -36 1 -46 12 -20 22 8 3 15 13 15 23 -1 17 -1 17
-11 1 -12 -22 -51 -25 -43 -3 3 8 9 14 12 13 21 -2 32 4 32 17 0 8 -6 15 -14
15 -8 0 -16 7 -20 15 -3 8 -12 15 -21 15 -8 0 -15 7 -15 15 0 17 -21 20 -37 4
-10 -10 -30 9 -59 57 -9 15 -14 17 -26 7 -11 -10 -17 -10 -26 -1 -9 9 -12 8
-12 -5 0 -9 13 -23 28 -31 16 -8 34 -22 41 -30 11 -13 11 -16 -3 -16 -9 0 -16
5 -16 10 0 6 -10 10 -22 10 -35 0 -49 14 -50 48 -1 18 -5 32 -10 32 -8 0 -12
-15 -9 -39 2 -7 -4 -11 -11 -8 -7 2 -12 11 -12 20 1 8 -8 26 -20 41 -18 22
-26 24 -56 18 -29 -7 -34 -12 -35 -36 0 -16 -6 -31 -14 -34 -11 -3 -12 2 -7
22 6 25 5 26 -13 17 -28 -16 -41 -14 -41 6 0 14 -2 15 -12 4 -10 -11 -10 -14
0 -18 6 -3 12 -16 12 -29 0 -13 5 -24 10 -24 6 0 10 -4 10 -10 0 -5 -13 -10
-30 -10 -23 0 -31 5 -36 26 -4 14 -2 30 5 37 16 16 14 30 -4 23 -11 -4 -15 2
-15 24 0 16 -4 32 -10 35 -6 3 -10 16 -10 29 0 12 -6 28 -12 35 -11 10 -10 11
3 6 9 -3 23 -21 32 -39 8 -18 25 -36 36 -39 31 -8 36 11 7 23 -28 10 -35 30
-11 30 18 0 20 17 3 23 -7 2 2 4 20 5 18 0 30 -3 27 -8 -6 -10 33 -40 53 -40
22 0 8 25 -16 28 -13 2 -19 8 -15 18 3 9 -2 14 -16 14 -25 0 -28 15 -4 24 9 4
20 1 24 -6 4 -7 17 -24 28 -37 12 -13 21 -32 21 -43 0 -10 5 -18 11 -18 5 0 7
5 4 10 -3 6 1 13 9 16 9 3 16 17 16 30 0 17 6 24 19 24 22 0 37 -17 26 -28 -4
-4 -10 -1 -12 6 -3 9 -10 4 -19 -13 -17 -34 -8 -52 15 -31 21 19 36 9 19 -13
-7 -9 -8 -13 -4 -9 5 4 21 -2 37 -12 15 -11 30 -16 33 -11 4 5 0 11 -6 14 -7
3 2 12 21 20 33 14 36 14 53 -8 10 -13 18 -28 18 -34 0 -12 13 -15 23 -5 8 9
-14 54 -27 54 -6 0 -3 5 7 11 21 12 22 29 2 29 -18 0 -19 12 -3 28 18 18 33
15 17 -4 -11 -13 -10 -15 3 -12 10 1 24 -6 33 -17 16 -19 16 -19 10 8 -4 21
-2 27 12 27 10 0 25 5 33 11 12 9 12 10 -4 5 -11 -4 -25 1 -35 12 -20 23 -51
35 -51 21 0 -16 -36 -59 -44 -52 -3 3 -6 14 -6 23 0 23 -36 54 -55 47 -9 -4
-15 -1 -15 8 0 11 12 15 43 16 23 1 47 0 52 -1 6 -2 27 -4 49 -4 22 -1 43 -9
50 -17 6 -9 26 -23 43 -33 27 -14 36 -14 55 -4 13 7 26 17 29 22 4 4 10 3 13
-3 4 -6 2 -11 -5 -11 -10 0 -10 -3 -1 -12 10 -10 15 -10 21 1 7 10 15 7 39
-16 49 -45 57 -50 70 -45 8 2 12 -8 12 -32 0 -19 5 -38 11 -42 8 -5 10 1 7 20
-7 36 10 33 26 -5 12 -29 54 -59 82 -59 8 0 14 -7 14 -15 0 -10 7 -15 18 -13
11 2 16 -3 14 -13 -1 -11 8 -21 28 -27 29 -11 42 -32 18 -32 -6 0 -3 -6 8 -14
10 -8 21 -10 22 -5 7 17 23 9 32 -17 9 -23 15 -26 40 -21 16 4 32 2 35 -3 10
-16 57 -11 71 8 13 16 13 16 14 0 0 -10 -4 -18 -10 -18 -5 0 -10 -8 -10 -17 0
-13 9 -18 30 -19 26 -1 30 3 31 25 1 17 3 20 6 9 2 -10 11 -18 19 -18 18 0 18
-9 -2 -31 -10 -11 -12 -19 -5 -24 6 -3 11 -1 11 5 0 6 15 0 33 -14 19 -15 44
-26 57 -26 13 0 34 -10 47 -22 18 -17 26 -19 32 -10 4 7 15 10 24 6 21 -8 22
3 2 22 -8 9 -15 21 -14 27 0 9 2 8 6 0 2 -7 14 -13 26 -12 12 0 17 3 10 5 -7
3 -9 12 -6 20 4 10 0 12 -11 8 -9 -3 -16 -1 -16 6 0 6 -8 9 -18 6 -15 -5 -21
2 -31 34 -6 22 -16 40 -21 40 -6 0 -10 9 -10 19 0 13 -9 21 -30 26 -16 4 -34
13 -38 22 -5 8 -20 20 -33 27 -13 6 -24 18 -24 26 0 8 -10 16 -22 18 -14 2
-22 10 -21 20 1 9 0 25 0 36 -2 15 -5 16 -17 6 -9 -8 -15 -8 -15 -2 0 6 -20
32 -45 58 -25 25 -45 48 -45 50 0 12 29 2 34 -12 3 -8 10 -13 15 -10 5 4 33
-17 62 -45 49 -47 85 -69 112 -69 7 0 -1 12 -18 27 -16 14 -30 29 -31 32 -1
11 -94 101 -104 101 -5 0 -10 7 -10 15 0 8 -6 12 -14 9 -8 -3 -16 4 -20 18 -7
22 -7 22 -16 3 -8 -20 -9 -20 -9 1 -1 32 -79 94 -118 94 -15 0 -15 2 -4 9 12
8 12 12 -2 25 -9 9 -30 19 -46 22 -17 4 -31 13 -31 20 0 8 -12 17 -26 20 -17
4 -23 11 -19 22 7 19 -12 42 -37 42 -10 0 -21 7 -24 15 -4 8 -25 24 -48 35
-22 11 -49 25 -59 32 -15 11 -20 10 -31 -5 -13 -16 -14 -16 -27 0 -8 9 -9 14
-2 10 20 -12 26 14 7 28 -16 11 -20 11 -27 -1 -11 -19 -27 -8 -27 18 0 17 -4
19 -25 14 -14 -4 -25 -2 -25 4 0 5 6 10 13 10 6 1 1 7 -12 14 -13 7 -33 11
-44 8 -12 -3 -18 -1 -14 5 7 10 -40 38 -58 35 -14 -2 -48 55 -40 68 3 6 2 10
-3 10 -5 0 -12 -9 -15 -20 -3 -11 -10 -20 -17 -20 -6 0 -8 5 -4 11 10 17 -17
59 -38 59 -10 0 -18 6 -19 13 0 6 -4 2 -9 -10 l-9 -23 -24 23 c-12 12 -21 29
-19 39 2 9 -5 21 -16 27 -11 6 -28 18 -37 28 -13 13 -21 14 -35 6 -14 -9 -23
-6 -47 15 -17 15 -36 28 -43 30 -7 2 -22 14 -32 28 -11 13 -23 22 -27 19 -5
-2 -15 3 -23 13 -17 19 -32 72 -21 72 9 0 7 269 -2 311 -9 38 1 37 41 -6 18
-19 37 -35 43 -35 5 0 13 -5 17 -12 5 -8 -5 -9 -34 -5 -48 6 -51 2 -19 -26
l22 -20 -24 6 -23 6 21 -20 c21 -20 27 -31 14 -27 -14 5 -13 -31 3 -82 5 -13
6 -13 15 0 9 13 10 13 6 0 -2 -8 -12 -14 -21 -13 -12 1 -15 -4 -11 -15 4 -10
9 -32 12 -50 3 -17 11 -32 18 -32 7 0 18 -7 26 -16 12 -14 14 -13 21 7 8 21
12 19 67 -39 32 -34 64 -62 70 -62 6 0 20 -14 33 -30 12 -17 26 -30 31 -30 5
0 18 -11 29 -25 15 -20 23 -23 38 -15 28 15 50 12 50 -6 0 -13 7 -15 36 -11
33 6 36 4 31 -15 -4 -15 -3 -18 5 -10 8 8 15 7 25 -4 8 -8 19 -11 25 -8 7 4 8
2 4 -4 -14 -23 5 -34 27 -15 17 15 19 15 15 2 -5 -12 -1 -15 17 -11 19 3 24
-1 30 -26 3 -17 13 -36 21 -43 8 -6 14 -17 14 -25 0 -13 37 -44 52 -44 5 0 8
6 8 13 0 22 20 34 46 29 26 -5 28 -27 3 -27 -8 0 -15 -11 -17 -25 -2 -19 4
-29 26 -42 17 -11 32 -14 38 -8 6 6 15 5 24 -1 12 -8 12 -12 2 -16 -10 -4 -10
-9 3 -23 9 -10 23 -16 31 -13 9 3 12 0 9 -9 -5 -13 5 -21 58 -46 4 -2 7 4 7
12 0 9 -6 15 -12 14 -12 -3 -14 39 -3 50 9 9 35 -20 35 -39 0 -10 10 -20 22
-24 58 -16 78 -28 69 -39 -6 -7 -2 -18 14 -32 13 -12 26 -19 29 -16 10 9 46
-30 46 -49 0 -21 44 -54 60 -44 5 3 10 1 10 -4 0 -6 -4 -11 -9 -11 -17 0 1
-39 26 -55 14 -9 22 -19 19 -23 -8 -7 83 -72 101 -72 22 0 15 15 -37 69 -52
54 -58 67 -39 73 39 13 -135 202 -196 214 -20 3 -42 13 -50 20 -7 8 -18 14
-24 14 -6 0 -11 4 -11 9 0 5 -13 14 -29 21 -43 17 -66 47 -63 81 1 17 -4 44
-12 62 -25 56 -68 181 -73 212 -3 17 -12 38 -20 47 -8 9 -12 22 -8 27 6 11
-26 80 -53 113 -8 9 -11 21 -8 27 4 5 2 12 -3 16 -6 3 -8 12 -4 20 3 9 -1 15
-11 15 -9 0 -16 -4 -16 -10 0 -5 -7 -10 -15 -10 -21 0 -19 -27 2 -39 10 -5 14
-13 10 -17 -4 -4 -13 -2 -19 4 -7 7 -18 12 -25 12 -24 0 -62 44 -69 80 -7 33
-6 34 12 20 10 -7 24 -20 31 -28 6 -8 19 -12 28 -10 15 3 14 6 -5 31 -13 16
-32 33 -44 38 -16 8 -14 8 13 4 19 -3 42 -12 51 -20 21 -19 30 -19 30 0 0 8 6
15 13 15 21 0 40 -17 33 -29 -5 -7 3 -11 23 -11 20 0 34 -7 41 -20 15 -29 40
-25 40 5 0 28 13 31 50 10 14 -8 41 -14 60 -15 20 0 44 -6 55 -13 26 -18 240
-61 255 -52 6 4 8 15 5 24 -4 12 10 37 42 75 26 31 51 56 55 56 4 0 14 -15 23
-34 14 -30 66 -87 125 -138 10 -10 46 -24 78 -33 33 -8 72 -22 88 -30 16 -8
33 -15 38 -15 22 0 75 -52 81 -80 8 -37 -2 -70 -22 -70 -23 0 -8 -50 23 -77
14 -13 32 -42 40 -65 8 -23 28 -69 44 -102 17 -33 30 -72 30 -88 0 -33 16 -69
36 -81 8 -4 14 -14 14 -21 0 -8 7 -16 15 -20 8 -3 15 -12 15 -20 0 -8 3 -16 8
-18 4 -1 24 -37 46 -78 21 -41 56 -106 79 -143 22 -37 40 -81 41 -97 1 -17 4
-30 7 -30 3 0 9 -26 13 -57 8 -71 41 -183 67 -229 10 -19 19 -42 19 -51 0 -24
61 -153 73 -153 5 0 7 -7 3 -15 -3 -8 5 -34 17 -58 12 -23 33 -66 45 -94 22
-53 23 -53 68 -53 l45 0 -24 32 c-47 63 -103 193 -105 243 0 11 -11 47 -22 80
-21 58 -38 109 -80 240 -11 33 -24 89 -31 125 -6 36 -15 75 -20 88 -5 13 -9
32 -9 42 0 11 -8 39 -19 62 -10 24 -31 84 -45 133 -27 90 -50 154 -67 187 -5
10 -18 50 -30 90 -58 202 -67 241 -62 275 4 26 3 34 -5 29 -8 -5 -10 -2 -6 9
4 9 0 23 -8 33 -19 21 -38 98 -38 150 0 21 -7 62 -16 92 -9 29 -14 64 -11 77
2 14 -2 45 -9 70 -8 26 -14 69 -14 96 0 28 -5 65 -12 84 -10 27 -16 31 -34 27
-29 -8 -88 49 -92 89 -2 15 -1 27 3 27 8 0 78 -52 87 -65 15 -20 27 11 32 85
4 41 8 95 10 120 2 25 -1 50 -6 57 -17 21 -36 126 -35 188 0 38 -8 87 -23 135
-34 105 -75 162 -127 176 -43 12 -23 20 50 21 40 0 108 10 150 22 76 21 127
27 114 14 -4 -3 -3 -11 1 -17 5 -6 17 -33 27 -61 9 -27 23 -63 30 -80 7 -16
18 -50 25 -75 12 -39 33 -99 60 -165 5 -11 20 -46 34 -77 14 -31 26 -61 26
-67 0 -5 6 -16 13 -23 18 -21 37 -56 37 -71 0 -7 16 -45 35 -84 19 -39 35 -76
35 -82 0 -6 4 -11 9 -11 9 0 51 -121 51 -147 0 -7 5 -13 11 -13 6 0 8 -7 5
-16 -4 -9 -2 -22 3 -28 12 -15 20 -126 9 -132 -10 -6 -38 20 -38 35 0 28 -99
37 -115 10 -3 -4 -12 -6 -20 -3 -8 3 -34 -1 -57 -10 -24 -8 -54 -17 -68 -18
-14 -2 -24 -9 -22 -16 1 -6 -7 -12 -18 -12 -19 0 -20 -5 -15 -63 2 -34 10 -93
17 -131 10 -61 10 -69 -5 -78 -42 -23 -10 -132 109 -363 96 -187 108 -206 126
-201 13 3 20 -4 26 -27 10 -39 4 -67 -14 -67 -8 0 -19 -10 -25 -23 -8 -18 -5
-49 17 -138 26 -110 27 -113 38 -81 12 35 26 33 26 -4 0 -13 8 -24 20 -27 11
-3 24 -16 29 -29 6 -12 10 -18 11 -13 7 60 6 99 -6 145 -8 30 -14 80 -15 110
0 30 -5 76 -11 102 -10 42 -9 51 15 101 15 29 27 59 27 65 0 6 15 30 33 54 19
24 37 57 42 74 l8 29 7 -26 c4 -14 6 -59 5 -100 -1 -41 5 -94 12 -119 8 -25
22 -88 33 -140 10 -52 23 -113 30 -135 15 -54 40 -201 40 -245 0 -20 7 -63 16
-95 9 -33 20 -80 23 -105 4 -27 11 -44 18 -43 7 2 10 -4 6 -13 -3 -9 -2 -19 3
-23 18 -12 51 -66 58 -93 3 -16 12 -28 20 -28 14 0 31 -31 40 -71 4 -18 14
-29 31 -33 14 -4 25 -14 26 -24 0 -9 2 -25 4 -35 2 -9 1 -17 -2 -17 -9 0 -33
29 -33 39 0 6 -3 11 -8 11 -4 0 -18 18 -32 40 l-25 41 -5 -38 c-3 -27 -12 -41
-27 -48 -23 -10 -33 -32 -33 -77 l0 -28 719 0 c711 0 720 0 755 21 19 11 67
25 107 30 57 8 77 16 104 40 18 16 48 38 66 48 19 10 63 36 99 58 36 22 135
70 220 108 85 38 238 111 339 162 191 97 224 110 346 143 89 24 282 43 350 35
175 -21 310 -91 397 -207 72 -96 133 -248 143 -360 l7 -78 244 0 244 0 0 2195
0 2194 -37 7 c-21 4 -50 14 -65 22 -29 17 -54 67 -37 77 5 4 9 20 9 37 0 29
-2 30 -30 24 -20 -4 -30 -2 -30 7 0 7 -9 18 -20 25 -11 7 -20 22 -20 35 0 16
-2 19 -9 8 -7 -11 -15 -10 -44 8 -19 11 -42 21 -51 21 -9 0 -30 7 -45 15 -37
19 -173 55 -183 49 -4 -3 -8 -1 -8 4 0 5 -20 20 -45 33 -25 13 -45 27 -45 31
0 15 -33 38 -55 38 -20 0 -23 -5 -23 -39 -1 -43 -13 -74 -45 -108 -26 -29 -68
-38 -222 -48 -65 -5 -84 -10 -105 -29 -14 -12 -56 -33 -94 -45 -67 -22 -70
-23 -125 -6 -31 9 -67 20 -81 24 -14 4 -39 27 -57 52 -17 24 -48 63 -68 86
-22 25 -47 72 -62 115 -22 63 -26 91 -27 198 -1 124 -1 126 -40 205 -47 99
-70 200 -62 280 4 52 2 67 -23 114 -25 49 -29 52 -34 30 -3 -13 -2 -44 3 -69
19 -94 15 -119 -46 -275 -4 -11 -8 -31 -8 -45 -2 -33 -23 -70 -41 -70 -8 0
-13 -9 -11 -22 4 -33 16 -58 29 -58 17 0 108 -100 122 -135 42 -97 26 -193
-41 -258 -24 -23 -44 -45 -44 -49 0 -5 -9 -18 -19 -30 -11 -13 -30 -35 -43
-50 -23 -27 -121 -68 -162 -68 -25 0 -96 36 -112 56 -6 8 -22 13 -35 13 -47
-3 -265 -2 -299 1 -19 1 -48 -1 -63 -5 -18 -5 -41 -2 -65 8 -20 9 -54 18 -75
21 -33 4 -43 0 -75 -28 -46 -41 -64 -50 -127 -65 -68 -16 -130 2 -223 63 -51
34 -87 50 -118 54 -27 3 -44 1 -44 -6 0 -6 -18 -13 -40 -17 -22 -4 -40 -10
-40 -15 0 -12 -61 -19 -183 -23 -60 -2 -112 -8 -115 -13 -4 -5 -27 -10 -51
-11 -25 -2 -48 -8 -53 -15 -4 -7 -8 -10 -8 -5 0 4 -18 -2 -40 -13 -21 -11 -46
-20 -54 -20 -8 0 -19 -6 -23 -13 -12 -20 -120 -67 -152 -67 -15 0 -49 3 -74 6
-44 6 -47 9 -71 59 -13 29 -28 69 -32 89 -3 21 -13 43 -20 51 -9 9 -11 16 -4
20 6 4 10 23 9 43 -1 20 4 69 11 107 11 60 10 77 -3 115 -8 25 -19 45 -23 45
-5 0 -12 -74 -15 -165 -4 -125 -11 -184 -28 -245 -46 -167 -114 -364 -161
-465 -71 -156 -99 -261 -111 -420 -13 -184 -23 -240 -54 -309 -27 -60 -105
-149 -105 -120 0 9 3 19 7 23 17 16 11 106 -8 130 -24 30 -59 41 -59 18 0 -23
-47 -151 -66 -179 -8 -13 -19 -21 -24 -18 -13 8 -5 72 11 91 6 7 9 24 6 36 -4
12 -1 28 4 35 8 8 7 27 -1 60 -7 26 -12 71 -12 98 1 43 6 54 33 77 18 15 28
31 24 38 -8 14 69 90 91 90 9 0 14 10 14 27 0 14 7 34 16 44 8 9 18 37 20 61
3 23 9 70 15 102 12 67 4 80 -44 71 -38 -7 -77 4 -77 21 0 8 -4 14 -10 14 -14
0 -12 22 5 44 14 19 15 19 35 1 17 -16 20 -16 20 -2 0 21 43 67 62 67 8 0 21
11 28 25 14 26 21 28 87 26 47 -2 73 18 73 55 0 42 -30 42 -65 -1 -29 -34 -36
-37 -61 -30 -16 5 -33 7 -39 6 -103 -25 -182 -33 -191 -20 -3 5 -13 9 -23 9
-34 0 -43 97 -21 208 7 31 16 63 20 71 12 22 36 -36 38 -94 3 -44 8 -54 43
-87 27 -24 46 -34 59 -31 24 6 24 11 6 60 -8 21 -22 65 -31 98 -10 33 -21 65
-25 70 -4 6 -3 36 3 68 8 46 15 58 31 62 97 19 131 31 157 52 17 14 28 32 25
39 -3 8 -1 14 4 14 6 0 5 9 -2 20 -11 17 -68 42 -103 44 -5 1 -14 11 -20 24
-5 12 -16 22 -24 22 -8 0 -11 3 -8 7 4 3 0 15 -10 25 -15 17 -15 18 8 19 13 0
18 3 12 6 -7 2 -13 17 -13 33 0 16 -6 35 -14 42 -7 8 -21 28 -30 46 -9 18 -21
32 -26 32 -6 0 -10 6 -10 14 0 18 -32 76 -42 76 -5 0 -8 12 -8 26 0 15 -12 41
-27 59 -49 57 -67 80 -66 82 1 2 -3 16 -8 33 -6 16 -11 33 -11 37 0 4 -9 14
-19 21 -11 7 -19 23 -19 35 0 12 -7 35 -15 50 -8 15 -17 43 -21 63 -3 19 -10
37 -15 40 -5 3 -9 15 -9 28 0 12 -4 26 -8 32 -5 5 -14 35 -21 66 -7 32 -17 60
-22 63 -5 4 -9 15 -9 25 0 10 -5 20 -10 22 -6 2 -11 14 -12 28 -2 33 -26 60
-54 60 -13 0 -34 11 -48 25 -14 14 -30 25 -36 25 -5 0 -10 7 -10 16 0 11 -6
13 -20 9 -10 -3 -30 0 -42 7 -13 7 -25 13 -28 13 -3 1 -22 7 -43 14 -21 7 -45
10 -54 7 -8 -4 -22 -1 -30 6 -10 8 -17 8 -21 1 -8 -12 -52 -28 -52 -18 0 3 10
10 23 16 19 8 19 9 -9 5 -16 -3 -34 -6 -40 -7 -22 -4 -44 2 -44 12 0 6 9 8 21
4 18 -6 19 -5 7 14 -11 18 -11 23 0 30 23 14 -16 23 -41 9 -21 -11 -21 -10 -7
7 14 17 13 18 -7 13 -27 -7 -31 9 -6 19 9 4 19 1 21 -5 5 -15 32 -16 32 -2 0
6 -7 10 -15 10 -21 0 -19 9 7 31 13 10 18 18 12 19 -6 0 -17 -7 -24 -15 -13
-16 -45 -21 -35 -6 3 5 -5 12 -17 14 -14 3 -8 5 15 6 26 1 37 5 34 14 -2 6
-10 11 -16 9 -6 -1 -14 5 -17 13 -4 8 -14 15 -24 15 -23 0 -35 16 -19 25 6 4
8 18 5 31 -4 14 -1 26 8 31 8 4 15 13 15 18 0 6 9 11 21 13 20 3 29 22 10 22
-5 0 -14 10 -21 21 -8 15 -8 19 0 15 7 -5 11 3 11 23 0 16 3 36 6 44 3 8 -2
22 -12 31 -9 9 -13 20 -9 24 13 13 34 -30 41 -84 8 -64 24 -72 24 -13 0 68
-19 117 -52 131 -15 7 -31 21 -34 31 -4 12 -12 16 -25 12 -16 -5 -19 -1 -19
24 0 17 -4 31 -10 31 -5 0 -10 7 -10 15 0 8 5 15 10 15 19 0 10 18 -31 59 -39
39 -41 42 -29 71 8 18 20 30 31 30 13 0 19 7 19 24 0 13 7 26 15 30 9 3 15 18
15 36 0 16 4 30 9 30 5 0 11 10 13 23 2 16 10 22 28 22 16 0 26 6 28 18 2 12
13 17 34 17 20 0 31 6 35 18 2 10 18 24 36 32 28 12 29 14 11 21 -16 7 -17 8
-1 8 9 1 17 6 17 12 0 5 17 34 38 64 30 44 45 55 80 64 23 6 42 15 42 20 0 5
10 9 23 9 12 0 47 3 77 6 30 4 70 7 88 6 22 0 32 4 32 15 0 21 13 19 28 -5 15
-24 50 -26 59 -4 3 9 1 25 -6 35 -7 12 -7 19 -1 19 5 0 10 -4 10 -10 0 -5 7
-10 15 -10 7 0 18 -7 23 -16 8 -15 10 -15 15 0 4 9 16 16 28 16 35 0 79 32 79
57 0 13 3 22 8 21 4 -1 20 6 35 16 19 13 27 25 24 38 -3 10 -1 21 4 24 17 10
9 26 -11 21 -28 -7 -35 10 -8 19 13 4 26 7 30 6 4 -1 5 4 2 11 -2 7 5 22 16
34 20 22 26 43 12 43 -7 0 -19 -3 -102 -29 l-30 -10 30 57 c30 57 38 92 21 92
-5 0 -12 -6 -14 -12 -5 -13 -12 52 -9 82 2 22 20 121 27 150 l6 25 -18 -23
c-52 -66 -95 -104 -105 -94 -7 7 -6 16 1 30 17 31 14 53 -6 50 -14 -2 -18 4
-18 27 0 22 -5 31 -17 31 -9 0 -14 -4 -12 -8 3 -4 0 -8 -6 -8 -13 0 -6 48 22
138 11 35 18 75 16 90 -2 19 2 28 15 30 13 3 17 -4 19 -35 1 -22 4 -8 7 32 6
65 3 96 -15 153 -6 21 -4 22 19 17 25 -7 25 -6 13 29 -7 22 -28 47 -53 65 -23
16 -65 53 -94 82 -66 63 -147 94 -219 83 -41 -6 -44 -6 -31 9 12 15 11 17 -5
17 -11 -1 -32 -7 -49 -14 l-30 -14 30 -12 c17 -7 41 -15 55 -19 26 -8 88 -96
76 -108 -8 -8 -48 3 -166 47 -47 17 -94 34 -105 37 -11 3 -31 14 -45 24 -14 9
-36 19 -50 20 -19 3 -24 9 -22 24 2 11 8 24 13 30 10 10 131 11 178 0 26 -6
31 -4 31 13 0 27 -73 40 -170 29 -101 -12 -171 -9 -187 7 -13 12 -21 6 -16
-13 3 -13 -4 -24 -26 -37 -35 -21 -41 -35 -11 -27 25 7 26 -12 3 -26 -10 -6
-13 -11 -8 -11 6 0 4 -4 -3 -9 -11 -6 -9 -9 6 -13 15 -4 19 -2 15 9 -4 11 -2
14 8 11 8 -3 13 -12 11 -20 -1 -8 8 -20 20 -27 13 -7 37 -31 53 -54 31 -41 55
-58 55 -37 0 16 -70 101 -79 96 -4 -3 -12 4 -19 14 -7 12 -8 21 -2 25 12 8
121 -4 135 -15 6 -4 51 -20 100 -35 50 -16 97 -32 105 -35 82 -38 130 -65 130
-74 0 -6 4 -5 9 2 6 10 12 5 21 -18 7 -17 17 -33 22 -36 6 -4 5 4 -2 16 -16
30 -10 32 22 6 19 -14 29 -34 32 -59 3 -21 8 -42 12 -48 8 -13 14 -193 6 -184
-8 7 -34 -94 -27 -105 3 -5 0 -10 -7 -12 -8 -3 -7 -11 5 -28 9 -14 17 -28 17
-32 0 -17 -28 -7 -43 15 -13 18 -16 19 -16 5 -1 -17 -21 -26 -21 -10 0 5 -7 9
-15 9 -11 0 -12 -4 -5 -11 21 -21 9 -29 -13 -8 -13 12 -31 22 -40 22 -9 0 -17
5 -17 12 0 9 -3 9 -11 1 -8 -8 -8 -17 1 -33 10 -20 10 -22 -3 -17 -30 11 -38
-90 -9 -116 10 -9 29 -38 42 -65 15 -31 35 -54 53 -62 36 -16 84 -57 99 -84
10 -19 10 -20 -6 -7 -14 12 -16 12 -10 -3 3 -9 11 -16 18 -16 6 0 20 -13 29
-30 21 -34 13 -40 -11 -9 -10 11 -25 21 -34 23 -10 1 -30 13 -45 27 -20 17
-23 19 -13 4 8 -11 17 -22 20 -25 20 -19 60 -73 60 -81 0 -17 -19 -9 -45 18
-14 15 -25 23 -25 17 0 -5 4 -14 9 -20 14 -15 23 -54 12 -54 -5 0 -13 10 -17
23 -8 26 -44 75 -44 60 0 -6 7 -16 15 -23 8 -7 15 -17 15 -23 0 -6 -12 1 -27
15 -48 45 -102 66 -66 26 55 -62 27 -44 -39 25 -41 42 -81 77 -89 77 -10 1 -9
4 4 11 13 8 22 4 42 -18 13 -15 25 -22 25 -15 0 6 -5 12 -11 12 -5 0 -8 4 -5
8 11 18 -84 89 -111 84 -7 -2 -13 1 -13 6 0 4 -20 22 -45 40 -25 17 -45 37
-45 43 0 6 13 -1 30 -14 16 -14 40 -29 52 -33 13 -4 26 -12 30 -18 4 -6 11 -7
15 -2 4 5 2 11 -4 13 -7 3 -13 11 -13 18 0 14 -82 56 -117 61 -27 3 -68 31
-153 104 -36 31 -80 67 -98 79 -18 13 -30 26 -27 29 3 4 9 2 13 -3 4 -6 18
-16 32 -23 14 -6 32 -16 40 -22 8 -5 38 -20 65 -31 28 -12 44 -24 37 -26 -21
-8 -2 -23 21 -18 14 4 38 -5 67 -24 24 -17 46 -28 49 -25 3 3 -1 9 -9 14 -8 6
-11 10 -5 10 5 0 -8 12 -30 27 -21 15 -34 28 -27 31 16 5 123 -61 142 -87 8
-12 18 -21 23 -21 5 0 31 -19 57 -42 46 -42 110 -84 110 -74 0 3 -11 17 -25
31 -14 14 -23 25 -19 25 12 0 -99 124 -145 163 -12 9 -28 17 -36 17 -8 0 -15
4 -15 9 0 5 -9 13 -20 16 -11 4 -18 11 -15 16 4 5 -4 9 -15 9 -16 0 -20 -5
-16 -15 7 -19 -1 -19 -20 -1 -11 11 -11 16 -1 19 7 3 4 6 -6 6 -10 1 -15 6
-12 11 3 6 3 10 -2 11 -36 3 -66 14 -121 45 -47 27 -61 39 -51 45 12 7 12 9 0
9 -8 0 -20 8 -27 18 -7 9 -14 12 -14 5 0 -13 -16 -12 -45 4 -24 13 -155 34
-167 27 -13 -8 -49 6 -43 17 4 5 1 9 -4 9 -6 0 -11 -4 -11 -10 0 -16 -20 -12
-57 11 l-34 21 27 25 c26 24 36 25 96 7 12 -4 15 0 11 15 -4 15 1 20 24 24
l28 4 -31 2 c-19 0 -34 -5 -37 -13 -4 -10 -22 -13 -71 -11 -57 3 -66 1 -71
-16 -4 -10 -18 -22 -33 -25 -15 -4 -32 -11 -39 -16 -7 -6 -19 -4 -32 4 -26 16
-27 25 -3 31 10 3 6 5 -11 6 -17 1 -26 -3 -22 -9 7 -12 -44 -13 -63 -1 -25 15
98 50 203 57 159 11 229 9 221 -5 -8 -12 102 -25 117 -13 17 13 103 7 159 -11
79 -25 298 -158 326 -198 7 -11 18 -17 23 -13 18 10 -98 109 -177 150 -30 15
-54 32 -54 37 0 4 -5 5 -12 1 -8 -5 -9 -2 -5 9 4 10 0 20 -11 26 -26 14 -171
45 -214 45 -20 1 -34 4 -31 9 8 13 -282 7 -370 -8 -90 -16 -299 -85 -326 -109
-9 -7 -32 -19 -52 -25 -20 -6 -80 -39 -135 -73 -54 -34 -120 -73 -146 -88 -47
-26 -126 -108 -196 -203 -54 -73 -59 -76 -158 -93 -49 -9 -96 -21 -104 -29
-24 -20 -60 -29 -60 -13 1 22 48 68 64 62 25 -10 39 6 23 24 -9 10 -13 32 -11
54 2 28 -3 45 -19 64 -21 24 -25 25 -150 26 -124 0 -128 1 -144 24 -15 23 -14
65 2 105 3 9 -1 23 -9 32 -9 9 -16 20 -16 26 0 5 -8 12 -18 15 -22 7 -25 36
-3 36 22 0 -19 29 -42 30 -9 0 -34 9 -55 20 -23 13 -47 18 -63 15 -17 -4 -30
0 -39 10 -7 8 -10 15 -6 15 7 0 -22 48 -41 68 -18 18 -16 52 2 52 8 0 15 5 15
11 0 13 41 59 53 59 4 0 7 -7 7 -15 0 -25 18 -17 34 14 9 16 27 32 41 35 27 7
32 25 14 43 -7 7 -9 18 -6 26 7 19 66 30 83 16 11 -9 14 -7 14 8 0 26 71 93
98 93 27 0 28 11 2 35 -11 10 -20 24 -20 31 0 8 -22 38 -49 67 -26 30 -51 66
-55 80 -3 15 -19 32 -36 41 -30 14 -31 14 -40 -8 -13 -34 -65 -83 -96 -89 -36
-6 -175 11 -191 25 -7 6 -13 28 -13 50 0 21 -7 50 -16 63 -9 14 -13 32 -10 41
4 10 1 14 -6 12 -7 -3 -13 -11 -13 -19 0 -17 -63 -25 -78 -10 -6 6 -19 11 -30
11 -22 0 -42 18 -51 47 -4 12 -16 25 -26 28 -11 3 -29 20 -41 36 -17 25 -22
48 -25 147 -3 64 -6 122 -6 127 -1 6 2 25 6 43 l8 32 -576 0 -576 0 0 -4800z
m1100 3964 c16 -4 21 -3 12 3 -8 6 4 9 36 9 47 -1 49 -2 50 -31 0 -16 -4 -32
-10 -36 -7 -4 -7 -13 1 -27 14 -27 14 -90 -1 -133 -17 -51 -44 -82 -92 -109
-42 -22 -46 -23 -106 -10 -75 16 -101 38 -125 108 -18 48 -18 54 -3 68 15 15
19 15 53 -6 26 -16 40 -19 47 -12 7 7 0 15 -25 26 -36 15 -36 15 -33 71 5 83
23 99 106 91 36 -3 76 -8 90 -12z m410 -316 c0 -45 -2 -48 -32 -56 -26 -7 -36
-5 -46 7 -10 14 -11 13 -6 -4 l6 -20 -13 20 c-26 39 -31 97 -13 124 39 55 104
11 104 -71z m-120 -768 c-11 -7 -7 -10 18 -10 25 0 32 -4 32 -20 0 -11 -5 -20
-11 -20 -10 0 -9 -25 3 -95 2 -15 -8 -24 -52 -41 -43 -17 -57 -29 -64 -51 -4
-15 -12 -35 -17 -43 -20 -33 -40 -124 -46 -212 -2 -38 -9 -68 -14 -68 -5 0 -9
-9 -9 -21 0 -32 -16 -55 -57 -79 -31 -18 -48 -21 -92 -17 -53 6 -91 28 -91 53
0 7 -10 23 -22 36 -28 29 -34 81 -15 137 18 50 11 116 -14 149 -21 28 -18 115
6 162 8 16 15 35 15 42 0 7 17 21 38 30 31 13 38 14 40 2 2 -8 8 -14 13 -14 6
0 7 5 4 11 -9 13 24 38 49 39 11 0 39 -9 62 -21 31 -15 52 -18 78 -13 20 3 36
10 36 15 0 5 6 9 14 9 7 0 20 7 27 16 15 18 45 32 69 33 13 1 13 0 0 -9z
m2482 -242 c-21 -21 -13 -32 9 -12 l22 19 -17 -33 c-10 -19 -19 -43 -22 -55
-2 -12 -10 -24 -17 -29 -7 -4 -20 -26 -27 -50 -8 -24 -17 -45 -20 -48 -3 -3
-16 -25 -29 -50 -18 -35 -78 -133 -98 -159 -2 -2 -6 -1 -10 2 -3 4 1 15 9 24
16 18 88 157 88 169 0 14 -41 -47 -63 -93 -21 -46 -43 -80 -79 -125 l-18 -21
0 22 c0 12 6 24 14 27 8 3 12 12 9 20 -3 8 3 22 13 30 11 9 13 13 7 9 -18 -9
-16 16 6 93 11 37 22 84 26 105 6 37 19 48 29 25 4 -9 9 -8 18 6 7 10 25 34
41 53 24 32 27 33 27 14 0 -12 -5 -31 -11 -42 -6 -11 -12 -39 -14 -61 -4 -36
-3 -39 10 -22 17 22 19 38 5 29 -13 -8 -13 1 1 27 9 17 13 18 21 7 7 -10 8 -9
4 6 -6 21 51 124 69 125 5 0 4 -5 -3 -12z m-3009 -118 c9 -24 11 -43 5 -53
-13 -25 1 -67 23 -67 20 0 31 -28 27 -68 -5 -57 -115 16 -120 78 -1 17 -6 30
-11 30 -5 0 -4 7 3 15 8 10 10 29 6 54 -3 22 -3 46 0 55 10 25 50 -1 67 -44z
m-490 -466 c3 -4 -1 -20 -9 -36 -13 -26 -15 -86 -3 -123 2 -5 -2 -25 -9 -44
-8 -24 -16 -32 -27 -27 -9 3 -13 2 -10 -4 3 -6 -5 -10 -19 -10 -14 0 -26 4
-26 9 0 5 -11 12 -24 15 -14 3 -29 19 -37 37 -16 41 3 80 47 94 39 13 66 35
61 49 -11 29 35 61 56 40z m3565 -1279 c29 4 32 1 32 -21 0 -14 -7 -38 -15
-55 -17 -32 -13 -49 12 -49 14 0 14 -3 -2 -20 -10 -12 -25 -18 -32 -16 -7 3
-13 0 -13 -6 0 -6 -11 1 -24 17 -13 15 -28 25 -32 22 -5 -3 -10 27 -10 65 -1
39 1 65 5 59 6 -9 11 -8 21 4 8 10 16 12 19 6 4 -6 21 -8 39 -6z m122 -541 c0
-8 6 -14 14 -14 24 0 38 -26 22 -39 -11 -10 -15 -8 -19 6 -4 16 -5 16 -6 1 0
-10 8 -22 19 -28 24 -13 25 -26 3 -48 -16 -16 -16 -16 -10 1 8 22 -1 47 -19
47 -8 0 -14 5 -14 10 0 6 -5 10 -11 10 -7 0 -9 -10 -5 -27 14 -55 11 -78 -11
-99 -22 -20 -31 -44 -17 -44 4 0 13 8 20 17 7 10 16 15 20 11 4 -4 2 -13 -3
-20 -6 -7 -9 -23 -8 -35 1 -14 -4 -23 -12 -23 -8 0 -11 5 -8 10 3 6 2 10 -4
10 -5 0 -13 9 -16 20 -3 11 -11 20 -16 20 -6 0 -5 -9 2 -21 7 -14 8 -24 1 -31
-6 -6 -8 -18 -5 -27 3 -12 2 -12 -7 2 -7 11 -18 16 -30 12 -13 -4 -19 1 -22
20 -4 19 -1 25 13 25 28 0 32 18 10 46 l-21 27 6 -33 c6 -29 5 -31 -17 -28
-13 1 -24 9 -24 16 0 7 -7 17 -15 22 -23 15 4 35 48 35 30 0 37 4 42 25 4 17
12 24 25 22 12 -3 16 1 12 12 -3 8 1 20 8 26 11 9 12 17 5 31 -8 14 -5 23 11
38 23 21 39 19 39 -5z m59 -2106 c5 -14 3 -45 -4 -78 -19 -84 -38 -228 -31
-239 15 -23 201 -91 251 -91 7 0 15 9 18 20 7 26 41 26 68 -1 17 -17 19 -28
14 -62 -7 -43 -37 -101 -59 -114 -7 -5 -22 -29 -35 -55 -12 -26 -40 -63 -62
-83 -42 -37 -43 -42 -33 -110 5 -34 2 -44 -19 -63 -25 -24 -25 -24 -32 -3 -6
20 -16 25 -42 22 -14 -2 10 84 30 108 7 9 33 56 56 105 41 85 42 90 25 103
-10 7 -14 13 -9 13 5 0 4 5 -3 12 -7 7 -12 18 -12 25 0 8 -10 27 -22 43 -17
24 -29 30 -58 30 -26 0 -43 7 -60 25 -13 14 -48 33 -77 41 -29 8 -55 19 -58
24 -2 4 -21 11 -42 15 -20 3 -57 17 -82 30 -25 13 -79 37 -119 55 -87 37 -142
69 -142 81 0 5 16 9 36 9 21 0 33 4 29 10 -3 6 -2 10 4 10 5 0 12 9 16 19 8
26 64 35 101 16 16 -8 40 -31 54 -50 30 -41 57 -45 70 -9 10 26 76 94 91 94
14 0 23 4 39 17 8 6 26 21 40 32 33 26 49 26 59 -1z m-1474 -1057 c0 -188 -3
-252 -13 -264 -8 -9 -9 -18 -4 -21 6 -4 6 -20 1 -43 -5 -21 -11 -58 -14 -83
-2 -25 -7 -76 -11 -115 -3 -38 -6 -86 -5 -105 1 -20 -6 -45 -15 -55 -16 -21
-16 -14 2 30 3 8 1 15 -6 15 -6 0 -9 4 -5 9 6 11 12 62 20 175 4 44 8 83 11
87 2 4 6 47 9 96 3 48 8 98 10 111 3 12 2 22 -2 22 -5 0 -6 33 -3 73 7 88 2
129 -14 120 -7 -4 -7 -2 1 8 7 8 12 26 11 40 -1 13 -1 58 0 99 2 59 4 71 15
61 9 -9 12 -75 12 -260z m-7 -956 c9 -17 17 -37 27 -65 1 -3 4 -12 7 -20 8
-22 41 -150 44 -174 2 -12 12 -95 24 -186 11 -91 22 -170 25 -177 2 -6 -3 -17
-11 -23 -12 -11 -14 -6 -14 27 0 39 -19 93 -32 93 -4 0 -4 10 1 22 5 15 2 45
-10 88 -11 35 -16 73 -13 82 3 10 0 18 -6 18 -6 0 -8 10 -4 25 4 16 2 25 -6
25 -9 0 -10 14 -5 50 4 31 3 50 -3 50 -6 0 -15 26 -21 58 -6 31 -13 64 -14 72
-2 8 -9 28 -15 43 -7 16 -12 34 -12 42 0 8 -4 16 -9 19 -5 3 -7 15 -4 27 5 16
9 11 23 -28 9 -26 22 -57 28 -68z"/>
<path d="M1466 9563 c-6 -36 -3 -41 38 -78 55 -49 76 -97 76 -172 0 -50 -5
-66 -40 -121 -22 -34 -47 -65 -55 -68 -16 -7 -21 -24 -6 -24 5 0 16 7 24 15 8
8 17 11 21 8 3 -4 6 0 6 7 0 7 16 28 36 47 27 25 43 33 59 29 21 -5 22 -3 20
66 -2 57 2 82 22 124 24 53 112 144 138 144 7 0 15 14 17 30 l5 30 -177 0
-177 0 -7 -37z"/>
<path d="M8236 9583 c-57 -12 -70 -13 -77 -1 -7 11 -9 11 -9 -1 0 -7 -6 -11
-14 -8 -8 3 -21 -2 -30 -12 -9 -10 -54 -31 -101 -46 -89 -29 -132 -59 -101
-71 9 -3 16 -14 16 -24 0 -11 5 -22 10 -25 18 -11 10 -30 -17 -42 -18 -9 -30
-10 -39 -2 -9 7 -18 -3 -35 -40 -31 -69 -75 -88 -206 -90 -22 -1 -33 -6 -33
-16 0 -9 -6 -12 -15 -9 -8 4 -15 1 -15 -5 0 -14 9 -14 57 3 21 7 77 16 123 19
76 5 88 4 117 -16 18 -12 33 -30 33 -40 0 -23 40 -37 84 -30 60 10 121 -5 158
-38 18 -17 28 -28 21 -25 -7 4 -9 -1 -6 -15 4 -12 13 -24 23 -26 32 -8 42 -83
24 -186 -9 -50 -17 -94 -19 -95 -2 -2 3 -11 11 -20 7 -10 20 -26 27 -36 14
-19 15 -19 40 1 15 11 24 23 21 26 -3 2 8 9 25 15 25 9 32 7 50 -12 20 -21 20
-25 6 -59 -8 -20 -23 -41 -32 -47 -13 -8 -14 -13 -5 -16 19 -8 16 -103 -5
-126 -15 -17 -14 -21 24 -66 48 -57 73 -103 73 -135 0 -14 3 -39 6 -56 6 -29
10 -32 33 -26 14 4 33 13 42 21 8 8 21 14 27 14 6 0 24 12 41 26 40 33 137 67
170 59 14 -4 44 -15 68 -26 74 -33 82 -24 45 52 -17 35 -27 73 -28 109 -1 30
-7 56 -13 58 -21 7 -11 44 24 92 43 58 83 72 116 42 14 -14 34 -20 65 -19 32
0 48 -5 58 -19 10 -14 17 -16 27 -7 22 17 108 32 138 23 14 -4 38 -13 53 -20
23 -11 34 -10 78 9 69 30 117 17 182 -49 l48 -47 0 69 c0 66 -1 69 -22 68 -49
-4 -67 1 -109 35 -43 35 -46 36 -109 30 -61 -6 -67 -5 -95 22 -69 65 -84 137
-44 219 25 52 67 80 143 95 47 10 59 9 80 -4 23 -15 28 -15 71 4 25 11 54 17
65 14 20 -6 20 -1 20 270 l0 277 -42 -5 c-47 -6 -168 -46 -168 -56 1 -3 27
-22 59 -42 48 -30 62 -45 76 -83 15 -40 16 -52 5 -91 -24 -85 -90 -125 -208
-125 -27 0 -41 -7 -57 -26 -21 -26 -111 -53 -182 -54 -20 0 -42 -9 -59 -25
-15 -14 -32 -25 -38 -25 -17 0 -36 21 -36 39 0 8 3 11 7 8 16 -16 32 32 33 96
0 38 4 67 10 67 6 0 10 -4 10 -9 0 -5 17 -15 38 -21 20 -7 45 -19 55 -28 9 -8
17 -11 17 -6 0 5 4 3 9 -4 6 -10 17 -3 43 26 28 30 36 50 41 93 9 76 41 159
68 180 22 16 22 18 6 25 -10 3 -24 19 -33 35 l-15 29 -109 0 c-104 0 -110 -1
-110 -20 0 -50 -27 -86 -79 -109 -42 -18 -51 -26 -46 -41 4 -11 -8 -47 -30
-92 -31 -62 -34 -76 -24 -94 17 -34 14 -66 -13 -120 -24 -48 -26 -49 -104 -72
-49 -14 -94 -21 -117 -18 -61 7 -117 71 -117 134 0 29 -1 30 -37 21 -59 -13
-70 -11 -107 24 -35 32 -35 32 -24 81 8 39 7 50 -3 57 -11 7 -10 9 4 9 9 0 17
5 17 11 0 5 -4 8 -9 5 -14 -9 -21 22 -12 47 13 33 59 71 129 108 62 32 76 51
46 63 -28 11 -187 4 -258 -11z"/>
<path d="M2563 9523 c-14 -29 -33 -45 -76 -66 -31 -15 -57 -31 -57 -35 0 -4
12 -15 28 -24 58 -34 75 -64 78 -130 2 -45 -1 -67 -12 -79 -14 -16 -12 -21 23
-60 35 -38 38 -48 43 -113 l5 -71 41 -3 41 -3 1 56 c0 41 7 67 26 100 14 24
26 57 26 73 0 27 -4 30 -53 41 -69 15 -103 49 -118 120 -14 64 -7 111 20 150
21 29 29 81 12 81 -5 0 -18 -17 -28 -37z"/>
<path d="M7079 9543 c0 -10 0 -36 1 -58 1 -29 -5 -49 -21 -69 -18 -23 -20 -32
-11 -45 7 -9 15 -23 18 -31 25 -65 22 -63 70 -57 25 2 48 8 51 11 4 4 -3 49
-16 101 -12 52 -21 108 -19 126 3 30 1 32 -34 36 -31 3 -38 0 -39 -14z"/>
<path d="M4430 9023 c-14 -3 -31 -9 -37 -15 -7 -6 -36 -13 -65 -17 l-53 -7 40
-21 c22 -12 57 -40 79 -63 24 -25 44 -39 54 -35 8 3 20 -2 27 -12 11 -14 12
-11 10 23 -1 21 -4 44 -6 49 -1 6 1 25 5 43 7 31 -5 64 -23 61 -3 -1 -17 -4
-31 -6z"/>
<path d="M2391 8829 c-10 -29 -14 -31 -46 -26 -38 6 -58 -8 -25 -18 24 -7 27
-35 4 -35 -11 0 -5 -12 20 -42 21 -24 36 -52 36 -67 0 -33 10 -46 38 -53 28
-8 52 15 52 48 0 14 7 41 15 61 16 37 20 87 8 80 -5 -2 -21 3 -38 13 -23 13
-29 22 -27 43 5 39 -23 35 -37 -4z"/>
<path d="M5243 7383 c-13 -2 -23 -10 -23 -16 0 -7 -18 -32 -41 -56 l-40 -45
23 -18 c13 -10 38 -23 56 -30 36 -13 45 -34 10 -23 -13 3 -34 9 -46 12 l-24 6
18 -34 c10 -19 19 -41 20 -49 1 -8 6 -39 13 -68 15 -70 14 -77 -4 -62 -9 8
-15 9 -15 2 0 -6 4 -13 9 -17 26 -15 44 -80 57 -195 13 -122 14 -125 48 -156
23 -21 31 -35 26 -45 -17 -26 48 -69 105 -69 39 0 70 -38 62 -76 -4 -25 6 -30
38 -18 29 12 45 60 45 141 0 146 31 221 107 261 32 17 134 15 179 -4 51 -22
136 -21 204 0 78 25 191 30 290 14 76 -12 91 -12 145 3 110 32 218 18 252 -31
17 -24 84 -44 94 -28 4 6 5 16 3 23 -8 20 63 82 111 96 11 3 19 11 17 17 -1 7
6 13 15 14 10 1 25 2 33 4 8 1 20 2 25 3 6 1 4 5 -4 10 -8 5 14 11 63 16 41 3
80 4 85 1 5 -4 60 -9 122 -12 115 -7 111 -5 170 -60 9 -8 39 -17 68 -21 66 -8
90 -24 74 -52 -10 -15 -9 -22 2 -31 8 -7 15 -21 15 -31 0 -10 3 -20 8 -23 4
-2 6 -25 4 -50 -3 -34 -8 -46 -21 -46 -14 -1 -14 -2 2 -11 11 -6 17 -22 17
-45 0 -35 32 -96 76 -143 13 -14 24 -31 24 -37 0 -7 10 -35 23 -62 l23 -50 18
51 17 52 -28 50 c-23 42 -28 62 -28 120 0 62 4 77 38 137 20 37 48 76 62 86
18 14 25 30 25 55 0 19 9 45 20 59 18 24 24 59 18 103 -6 34 -46 115 -61 120
-18 8 -182 -29 -182 -41 -1 -16 -24 -52 -50 -78 -14 -14 -25 -32 -25 -40 0 -8
-7 -22 -16 -30 -8 -9 -11 -16 -5 -16 8 0 7 -7 -1 -20 -17 -26 -24 -25 -62 7
-21 18 -25 24 -11 20 17 -6 18 -5 5 5 -21 18 -48 53 -33 45 6 -4 2 11 -8 33
-21 42 -18 110 4 110 8 0 8 3 0 11 -8 8 -17 8 -33 -1 -25 -13 -45 -17 -140
-26 -51 -4 -77 -1 -124 15 l-59 21 -36 -28 c-70 -53 -129 -63 -195 -33 -86 39
-103 44 -160 46 -47 1 -62 -3 -78 -19 -11 -12 -34 -21 -56 -23 -41 -3 -112 13
-112 25 0 4 -13 15 -29 25 -21 12 -55 17 -130 19 -55 1 -101 4 -101 8 0 3 -24
5 -52 5 -29 0 -58 3 -64 7 -15 10 -50 10 -194 -1 -69 -5 -136 -7 -150 -4 -31
7 -100 54 -100 69 0 6 -11 33 -25 60 -14 27 -25 56 -25 65 0 9 -7 20 -16 23
-31 12 -171 6 -200 -8 -24 -13 -30 -13 -48 0 -19 13 -83 17 -133 7z"/>
<path d="M9250 7165 c0 -8 7 -15 15 -15 8 0 15 -6 15 -12 1 -13 79 -68 97 -68
6 0 18 -9 28 -20 12 -14 25 -17 46 -13 18 3 29 1 29 -6 0 -6 9 -11 20 -11 11
0 20 5 20 11 0 7 14 8 40 4 l40 -7 0 51 c0 53 -13 67 -26 29 -5 -13 -8 -26 -9
-30 0 -3 -3 -9 -7 -13 -7 -7 -17 -1 -70 48 -34 30 -44 33 -51 15 -3 -8 -6 -6
-6 5 -1 22 -29 22 -53 0 -10 -9 -18 -12 -18 -7 0 5 -14 9 -30 10 -18 1 -40 11
-51 23 -23 25 -29 26 -29 6z"/>
<path d="M5402 6248 c-7 -7 -12 -17 -12 -24 0 -7 -16 -21 -35 -33 -29 -17 -35
-26 -35 -55 0 -19 -4 -37 -8 -40 -5 -3 -10 -29 -11 -58 -1 -28 -4 -54 -6 -56
-2 -3 6 -17 19 -32 14 -17 26 -48 30 -78 4 -31 12 -52 22 -56 22 -8 24 -8 18
7 -7 19 32 65 59 69 22 3 22 6 22 143 0 77 3 145 6 150 4 6 -8 24 -26 42 -24
25 -34 30 -43 21z"/>
<path d="M7785 6170 c-3 -5 -4 -10 0 -10 13 0 -27 -59 -79 -115 -30 -33 -55
-66 -56 -73 0 -7 11 -30 25 -52 14 -22 25 -42 25 -46 0 -9 62 -87 80 -101 13
-10 17 0 32 70 18 88 24 177 15 217 -3 14 -9 46 -12 73 -6 45 -17 58 -30 37z"/>
<path d="M5035 6120 c-68 -8 -115 -29 -143 -64 -11 -14 -22 -22 -26 -18 -4 3
-11 0 -17 -8 -7 -12 -11 -13 -18 -2 -11 17 -18 -9 -17 -58 1 -28 6 -35 26 -40
14 -4 30 -3 35 1 6 4 16 4 23 0 10 -6 -8 -27 -58 -71 -95 -86 -114 -117 -108
-182 5 -50 84 -224 113 -248 8 -7 31 -12 52 -12 122 0 127 2 116 65 -5 31 -9
35 -44 41 -44 7 -51 21 -15 30 21 5 24 13 30 79 4 40 4 85 1 99 -6 23 -3 26
41 38 47 13 47 13 71 -16 12 -16 23 -23 23 -17 0 7 11 15 25 19 14 3 25 10 25
14 0 8 -127 50 -153 50 -10 0 -22 11 -27 25 -30 78 73 82 144 6 33 -34 46 -28
46 23 0 23 -12 41 -52 79 l-51 48 48 45 c27 24 47 45 44 47 -5 4 -62 31 -69
33 -3 0 -32 -2 -65 -6z"/>
<path d="M5469 5625 c-7 -16 -22 -36 -31 -43 -10 -7 -18 -21 -18 -30 0 -10
-11 -34 -24 -53 -33 -49 -42 -86 -25 -107 26 -32 39 -62 39 -87 0 -14 4 -25 8
-25 9 0 52 84 52 101 0 5 9 22 21 38 23 31 39 148 22 159 -5 4 -14 23 -20 42
l-10 35 -14 -30z"/>
<path d="M3593 1758 c-4 -7 -1 -8 7 -3 10 6 12 -1 7 -37 -5 -34 -3 -49 8 -58
8 -7 15 -20 15 -29 0 -10 7 -26 15 -37 8 -10 15 -29 15 -41 0 -13 5 -23 11
-23 5 0 7 -4 4 -10 -3 -5 10 -24 30 -41 27 -24 33 -35 25 -44 -8 -9 -8 -15 0
-20 6 -3 8 -11 4 -16 -7 -12 24 -49 42 -49 7 0 14 5 16 11 5 15 46 -10 53 -32
6 -19 90 -79 110 -79 8 0 15 -4 15 -10 0 -5 4 -10 8 -10 17 0 -1 66 -28 100
-19 25 -28 48 -28 75 -1 22 -12 78 -27 125 -14 47 -27 92 -29 101 -7 27 -30
59 -42 59 -6 0 -17 7 -25 16 -7 8 -21 13 -32 10 -12 -3 -29 5 -44 21 -28 27
-80 44 -67 21 4 -7 14 -21 22 -30 8 -9 12 -22 10 -28 -5 -16 -48 18 -48 39 0
21 -36 35 -47 19z"/>
<path d="M3907 1713 c-3 -3 -1 -16 4 -30 7 -20 6 -28 -6 -37 -19 -14 -11 -43
12 -48 9 -2 22 -19 28 -38 6 -19 16 -35 21 -34 5 1 19 -13 32 -30 29 -40 63
-41 73 -2 14 50 -15 136 -46 136 -6 0 -20 9 -29 19 -10 11 -28 22 -41 25 -15
4 -22 11 -19 20 5 13 -19 29 -29 19z"/>
<path d="M4116 1633 c-14 -14 -5 -59 14 -71 11 -7 20 -21 20 -33 0 -18 4 -20
30 -14 24 5 34 2 53 -19 14 -14 31 -26 38 -26 23 1 57 35 65 64 7 29 -5 42
-71 77 -31 16 -139 32 -149 22z"/>
<path d="M3277 809 c-10 -6 -24 -8 -32 -5 -9 3 -20 -7 -30 -26 -18 -38 -18
-38 -1 -38 8 0 17 -8 19 -17 3 -13 5 -12 6 5 1 28 21 19 21 -9 0 -21 30 -27
31 -6 0 6 6 -4 13 -23 10 -28 18 -34 35 -32 15 2 28 -4 38 -17 8 -12 25 -21
38 -21 13 0 27 -4 30 -10 14 -22 40 -9 51 25 10 30 9 35 -5 33 -10 -2 -17 7
-21 27 -4 23 -11 31 -30 33 -19 2 -22 1 -10 -7 12 -9 12 -11 -3 -17 -26 -10
-32 2 -14 30 14 21 15 26 1 37 -8 7 -13 18 -10 25 7 19 -7 24 -22 8 -7 -8 -8
-14 -2 -14 5 0 10 -4 10 -10 0 -20 -38 -9 -54 15 -18 27 -31 30 -59 14z"/>
<path d="M4616 343 c-3 -7 -12 -10 -19 -7 -35 13 -30 -86 5 -111 15 -10 19
-20 14 -39 -4 -15 -2 -26 4 -26 5 0 10 -13 10 -29 0 -40 14 -73 43 -105 20
-21 33 -26 75 -26 l50 0 -10 38 c-6 20 -10 49 -9 64 0 18 -7 32 -20 39 -12 6
-18 13 -15 16 3 3 -2 20 -11 37 -30 57 -33 66 -33 80 0 8 -9 31 -21 50 -20 35
-53 45 -63 19z"/>
<path d="M4830 205 c0 -8 6 -15 14 -15 12 0 23 -35 31 -100 1 -8 12 -32 25
-52 21 -36 25 -38 70 -38 45 0 48 2 43 22 -3 13 -11 28 -19 34 -7 5 -20 30
-30 55 -29 75 -60 109 -100 109 -24 0 -34 -5 -34 -15z"/>
</g>
</svg>
