<?xml version="1.0" standalone="no"?>
<!DOCTYPE svg PUBLIC "-//W3C//DTD SVG 20010904//EN"
 "http://www.w3.org/TR/2001/REC-SVG-20010904/DTD/svg10.dtd">
<svg version="1.0" xmlns="http://www.w3.org/2000/svg"
 width="604.000000pt" height="453.000000pt" viewBox="0 0 604.000000 453.000000"
 preserveAspectRatio="xMidYMid meet">
<metadata>
Created by potrace 1.13, written by Peter Selinger 2001-2015
</metadata>
<g transform="translate(0.000000,453.000000) scale(0.100000,-0.100000)"
fill="#000000" stroke="none">
<path d="M0 2265 l0 -2265 3020 0 3020 0 0 2265 0 2265 -1781 0 c-1759 0
-1781 0 -1809 -20 -36 -26 -59 -77 -53 -117 3 -18 9 -33 14 -33 17 0 9 -16
-19 -37 -37 -28 -58 -17 -41 20 7 15 16 27 21 27 4 0 8 7 8 15 0 57 -64 -43
-66 -103 -1 -24 -6 -48 -12 -54 -16 -16 -23 7 -11 41 6 17 9 36 6 43 -3 7 -8
-2 -12 -19 -7 -31 -25 -47 -25 -22 0 16 -37 1 -64 -26 -13 -13 -21 -27 -17
-31 3 -4 -2 -4 -11 -1 -10 4 -18 2 -18 -3 0 -11 11 -13 34 -4 9 3 14 10 11 14
-3 4 5 10 16 13 16 4 19 2 14 -11 -4 -12 0 -10 15 6 29 31 28 32 21 -30 -1 -4
-11 -7 -23 -5 -17 1 -24 -4 -26 -20 -2 -15 2 -23 12 -23 10 0 13 -6 9 -16 -5
-13 -9 -12 -29 7 -12 11 -28 18 -34 14 -6 -4 -17 -1 -25 5 -12 10 -16 9 -21
-4 -3 -9 -15 -16 -25 -16 -14 0 -19 -7 -19 -25 0 -27 15 -34 24 -10 6 16 36
21 36 5 0 -5 -9 -14 -20 -20 -11 -6 -20 -17 -20 -24 0 -16 -43 -30 -48 -16 -2
6 -8 10 -14 10 -6 0 -7 -7 -4 -15 3 -9 -1 -18 -9 -21 -18 -7 -20 -24 -2 -24 7
0 22 -7 33 -16 18 -15 18 -15 -4 -9 -15 4 -24 1 -28 -9 -3 -9 -11 -16 -16 -16
-6 0 -7 7 -4 15 3 9 -1 18 -10 22 -13 5 -13 8 1 24 11 11 14 25 10 38 -7 24
-30 28 -39 6 -3 -8 -12 -15 -20 -15 -8 0 -17 -6 -20 -12 -3 -7 -5 -2 -4 12 1
14 0 45 -1 70 l-1 45 -17 -35 c-9 -19 -17 -35 -17 -36 -1 -1 -13 -4 -28 -8
l-28 -6 0 76 c0 43 -2 75 -4 73 -3 -2 -10 -44 -16 -93 -7 -49 -17 -101 -24
-115 -12 -27 -36 -40 -36 -19 0 6 -7 19 -15 28 -12 13 -13 23 -5 44 13 35 3
53 -16 29 -7 -10 -14 -13 -15 -8 0 6 -2 20 -3 32 -4 35 -14 38 -22 8 -7 -26
-8 -27 -20 -10 -13 17 -14 16 -14 -13 0 -24 -5 -32 -17 -32 -10 0 -31 -7 -47
-15 -28 -15 -46 -13 -46 6 0 5 16 9 35 9 28 0 35 4 35 20 0 24 -45 28 -54 5
-3 -8 -12 -15 -21 -15 -18 0 -19 -12 -3 -28 14 -14 9 -15 -49 -16 -35 -1 -40
1 -30 14 7 8 16 18 21 21 4 4 5 17 0 30 -4 13 -7 29 -6 36 2 6 -2 14 -8 18 -6
4 -10 -5 -10 -22 0 -18 -3 -24 -8 -15 -6 9 -16 10 -33 4 -17 -7 -28 -6 -36 3
-10 11 -10 14 0 18 8 3 6 10 -7 23 -13 14 -20 15 -23 7 -7 -19 -16 -16 -52 16
-27 24 -36 28 -47 18 -33 -30 -42 -35 -48 -30 -3 3 -13 2 -23 -2 -33 -15 -43
-13 -53 6 -6 10 -7 19 -3 19 4 0 -9 12 -30 27 -43 30 -48 48 -12 39 15 -4 25
-2 25 4 0 11 51 2 60 -10 3 -4 15 -10 27 -14 21 -7 22 -5 19 46 -3 39 -8 54
-20 56 -9 2 -16 -3 -16 -12 0 -9 5 -16 10 -16 6 0 10 -7 10 -16 0 -11 -5 -14
-16 -10 -9 3 -19 6 -24 6 -4 0 -11 11 -14 25 -4 17 -11 23 -23 18 -15 -6 -15
-7 1 -18 9 -7 16 -15 16 -18 0 -11 -64 5 -75 18 -5 6 -16 10 -23 8 -6 -3 -12
2 -12 11 0 9 -6 16 -12 16 -9 0 -8 4 2 10 9 6 10 10 3 10 -6 0 -19 3 -29 7
-14 5 -16 2 -11 -18 5 -22 5 -22 -7 -6 -7 9 -19 17 -26 17 -8 0 -4 -10 11 -26
l24 -26 -30 4 c-28 3 -30 6 -28 41 2 35 -9 48 -22 27 -11 -19 -25 1 -25 35 0
47 -30 64 -46 27 l-11 -27 0 28 c-1 33 10 41 37 27 18 -9 20 -8 20 14 l0 25
-430 1 -430 1 0 -2266z m3738 1092 c28 -3 52 -1 52 4 0 5 5 9 10 9 6 0 10 -11
10 -25 0 -14 3 -25 8 -25 13 1 38 24 45 43 3 9 11 17 16 17 6 0 8 -7 5 -15 -4
-8 -1 -15 5 -15 6 0 11 4 11 8 0 25 186 -12 201 -39 5 -11 16 -19 24 -19 8 0
15 -4 15 -9 0 -5 9 -11 20 -14 13 -3 22 -17 26 -36 4 -18 12 -30 18 -28 12 4
36 -37 36 -64 0 -10 5 -21 10 -24 6 -3 10 -15 10 -26 0 -11 5 -17 10 -14 6 4
10 -8 11 -27 0 -18 2 -49 5 -68 2 -19 7 -77 10 -127 l5 -93 -30 6 c-19 4 -37
2 -46 -6 -11 -9 -19 -9 -28 -2 -19 16 -162 8 -220 -12 -26 -9 -57 -16 -67 -16
-11 0 -20 -5 -20 -11 0 -6 -10 -19 -22 -29 l-22 -18 40 -6 c26 -5 56 -2 85 8
73 24 109 29 209 28 52 0 100 4 106 9 8 6 13 0 17 -20 8 -40 58 -110 78 -111
18 0 34 -72 32 -140 -2 -63 -12 -184 -19 -232 -4 -26 -1 -82 6 -125 13 -85 1
-223 -24 -272 -7 -14 -12 -31 -9 -37 6 -18 -38 -104 -94 -186 -18 -26 -33 -51
-33 -56 0 -4 -11 -19 -25 -32 -14 -13 -25 -28 -25 -35 0 -6 -8 -18 -17 -27
-55 -53 -114 -138 -95 -138 14 0 102 99 102 115 0 8 7 15 16 15 18 0 47 30 71
75 9 17 19 32 22 35 17 14 71 90 71 100 0 17 25 6 26 -11 2 -32 17 -79 26 -79
5 0 7 -8 3 -19 -3 -10 1 -24 10 -31 8 -7 15 -20 15 -29 0 -9 4 -21 9 -27 5 -5
11 -27 14 -49 11 -76 19 -105 29 -99 6 4 7 -2 3 -16 -5 -15 -4 -20 4 -16 7 4
11 -1 11 -13 0 -14 6 -21 20 -21 17 0 19 -6 16 -50 -2 -38 -8 -55 -25 -68 -12
-9 -38 -32 -59 -50 -37 -34 -110 -73 -147 -79 -11 -2 -47 -14 -80 -27 -44 -18
-90 -26 -170 -31 -99 -6 -116 -5 -167 15 -32 12 -58 26 -58 31 0 5 -11 7 -25
3 -16 -4 -25 -2 -25 6 0 7 -7 10 -15 6 -8 -3 -15 -1 -15 4 0 6 -28 10 -62 11
-45 0 -57 3 -43 9 18 8 18 9 -5 9 -14 1 -50 15 -80 31 -30 17 -79 42 -109 57
-54 28 -118 86 -113 104 1 5 -2 9 -6 9 -16 0 -29 45 -31 109 -1 36 -5 69 -7
73 -10 16 50 -5 71 -24 11 -11 37 -29 59 -40 21 -11 50 -31 63 -44 13 -13 29
-24 36 -24 7 1 3 8 -8 18 -24 20 -55 66 -72 105 -7 15 -19 27 -27 27 -8 0 -18
9 -21 20 -3 11 -12 20 -18 20 -11 0 -107 112 -107 125 0 6 -36 59 -60 86 -31
36 -55 76 -103 171 -13 26 -28 53 -34 60 -5 7 -22 47 -37 88 -16 41 -32 84
-36 95 -10 25 -26 92 -39 170 -19 109 -17 141 9 148 17 4 19 13 18 60 -1 38 4
64 16 82 l17 26 180 -2 c98 -1 182 0 185 4 15 15 -96 47 -199 57 -62 6 -127
18 -145 26 -19 9 -52 14 -75 12 l-42 -3 3 60 c4 70 40 166 61 162 8 -1 20 7
25 18 17 32 98 137 133 174 18 18 33 38 33 44 0 6 3 7 7 4 3 -4 12 1 18 10 10
14 16 15 27 5 12 -9 23 1 64 56 31 43 57 68 72 70 12 2 20 8 17 13 -4 5 6 9
20 9 14 0 24 3 22 8 -3 4 13 8 34 10 28 2 41 -2 45 -13 8 -19 30 -20 41 -2 11
19 117 76 123 66 3 -4 29 -9 58 -12z"/>
<path d="M3960 2612 c-24 -2 -51 -9 -59 -15 -12 -9 -13 -9 -7 1 4 6 4 12 1 12
-11 0 -34 -27 -29 -33 4 -3 -6 -18 -20 -34 -31 -33 -18 -45 37 -36 54 8 48 29
-5 24 -31 -4 -19 15 18 28 30 11 38 11 45 0 12 -20 11 -37 -3 -42 -7 -2 18 -8
57 -14 54 -8 80 -7 120 4 27 8 62 17 78 20 30 6 59 44 38 51 -6 2 -17 10 -25
17 -13 14 -155 23 -246 17z"/>
<path d="M3294 2522 c3 -6 -19 -12 -52 -16 -143 -15 -191 -31 -213 -72 -14
-28 -5 -44 26 -44 13 0 25 -4 27 -8 5 -14 58 -24 58 -12 0 6 4 8 10 5 5 -3 25
-3 44 0 24 5 33 11 29 21 -4 10 3 14 23 14 35 0 57 13 60 35 5 33 14 45 34 45
11 0 20 5 20 11 0 6 -7 9 -15 5 -8 -3 -14 0 -12 7 1 6 -9 13 -22 15 -13 2 -21
0 -17 -6z"/>
<path d="M3853 1730 c-14 -13 -163 -28 -302 -30 -29 0 -94 -47 -85 -61 6 -10
57 -7 169 9 33 5 77 8 98 7 21 -1 40 2 43 6 4 7 131 25 148 20 13 -3 66 20 66
30 0 4 -21 11 -47 14 -27 3 -55 8 -65 9 -9 2 -20 0 -25 -4z"/>
</g>
</svg>
