<?xml version="1.0" standalone="no"?>
<!DOCTYPE svg PUBLIC "-//W3C//DTD SVG 20010904//EN"
 "http://www.w3.org/TR/2001/REC-SVG-20010904/DTD/svg10.dtd">
<svg version="1.0" xmlns="http://www.w3.org/2000/svg"
 width="960.000000pt" height="960.000000pt" viewBox="0 0 960.000000 960.000000"
 preserveAspectRatio="xMidYMid meet">
<metadata>
Created by potrace 1.13, written by Peter Selinger 2001-2015
</metadata>
<g transform="translate(0.000000,960.000000) scale(0.100000,-0.100000)"
fill="#000000" stroke="none">
<path d="M1930 8004 c0 -877 4 -1593 8 -1590 4 2 14 -9 21 -25 7 -16 17 -27
22 -23 5 3 9 -1 9 -8 0 -7 11 -22 25 -32 13 -10 31 -41 41 -70 9 -28 20 -55
25 -61 5 -5 9 -19 9 -31 0 -12 8 -32 19 -45 10 -13 22 -35 26 -49 4 -14 15
-36 25 -50 10 -14 20 -35 24 -46 15 -47 70 -137 87 -141 11 -3 19 -11 19 -18
0 -13 18 -38 71 -96 15 -16 35 -40 45 -54 10 -14 27 -25 36 -25 15 0 18 9 18
59 0 33 -4 62 -9 65 -16 10 -35 116 -20 116 5 0 9 -7 9 -15 0 -9 8 -18 18 -22
9 -4 33 -22 53 -42 34 -35 92 -85 121 -106 18 -13 138 -72 159 -79 13 -3 20 6
28 40 6 24 14 44 17 44 3 0 3 -11 0 -25 -7 -27 8 -35 18 -10 7 20 22 19 32 -2
4 -10 10 -74 13 -143 6 -116 7 -125 26 -125 28 0 53 59 60 142 8 92 24 143 45
143 9 0 25 9 35 20 10 12 25 18 32 16 8 -3 22 -1 32 6 50 31 69 -42 31 -117
-11 -22 -20 -48 -20 -58 0 -10 -7 -25 -15 -33 -17 -17 -21 -74 -5 -74 6 0 10
-7 10 -15 0 -9 11 -26 24 -38 15 -14 28 -43 36 -81 7 -33 16 -67 20 -75 5 -9
18 -37 30 -63 14 -31 28 -48 40 -48 10 0 24 -7 31 -17 8 -9 28 -22 45 -29 22
-9 34 -24 44 -55 8 -23 21 -44 30 -46 9 -2 20 -14 25 -26 6 -12 22 -28 38 -35
22 -11 27 -20 28 -50 3 -73 12 -97 39 -97 16 0 28 -8 35 -22 5 -13 13 -23 18
-23 16 0 89 -66 103 -92 8 -16 21 -28 29 -28 8 0 15 -9 15 -20 0 -11 5 -20 10
-20 6 0 10 -7 10 -15 0 -8 7 -15 15 -15 9 0 21 -11 27 -25 6 -14 15 -25 20
-25 4 0 8 -6 8 -13 0 -7 11 -29 24 -48 14 -20 28 -48 32 -63 3 -14 12 -30 19
-34 7 -4 15 -21 18 -38 6 -37 20 -66 41 -84 9 -7 16 -23 16 -37 0 -13 4 -22 8
-19 8 5 39 -52 62 -111 10 -26 19 -34 49 -39 63 -10 72 -15 82 -42 6 -15 9
-27 8 -27 -1 0 3 -10 10 -22 9 -17 9 -28 1 -44 -9 -15 -8 -25 3 -42 33 -51 29
-70 -18 -107 -24 -19 -44 -43 -45 -52 0 -10 -7 -18 -15 -18 -8 0 -15 -7 -15
-15 0 -9 -7 -18 -15 -21 -8 -4 -15 -14 -15 -23 0 -16 -76 -71 -99 -71 -6 0
-11 -9 -11 -19 0 -11 -15 -30 -32 -42 -49 -33 -58 -48 -58 -97 0 -43 0 -44
-32 -41 -18 1 -48 -5 -66 -15 -22 -11 -38 -14 -45 -8 -7 5 -24 8 -39 5 -34 -4
-78 23 -78 48 0 10 -4 21 -10 24 -5 3 -10 40 -10 81 0 49 -5 82 -15 98 -8 12
-15 33 -16 47 0 13 -5 118 -11 233 -12 233 0 189 -113 431 -18 39 -40 91 -50
117 -9 26 -23 49 -31 52 -8 3 -14 14 -14 24 0 10 -4 22 -9 27 -6 6 -12 33 -15
60 -6 69 -16 96 -43 125 -13 14 -23 32 -23 41 0 17 -30 49 -46 49 -6 0 -16 17
-23 38 -8 20 -22 43 -32 50 -11 7 -19 22 -19 33 0 24 -43 44 -48 23 -4 -16
-23 -21 -115 -28 -64 -5 -149 -27 -192 -49 -11 -6 -47 -25 -81 -43 -78 -41
-159 -64 -222 -64 -55 0 -109 -19 -133 -47 -19 -21 -42 -71 -60 -128 -18 -58
-39 -86 -76 -102 -37 -15 -53 -11 -53 15 0 14 -2 13 -13 -3 -13 -17 -15 -17
-30 5 -8 12 -13 28 -11 35 9 23 -23 83 -53 97 -24 11 -28 19 -29 58 -1 25 -10
63 -20 85 -19 40 -26 115 -11 115 4 0 12 11 17 25 10 26 -8 135 -22 135 -4 0
-9 17 -10 38 -1 27 -3 22 -8 -23 l-7 -60 -3 70 c-2 39 -4 80 -4 93 0 12 -3 22
-7 22 -4 0 -9 24 -13 53 -3 28 -8 77 -12 107 -3 30 -8 57 -10 59 -2 2 -4
-1202 -4 -2677 l0 -2682 400 0 c255 0 400 4 400 10 0 5 -12 12 -27 16 -49 10
-55 14 -60 34 -3 11 -24 28 -47 38 -22 11 -47 26 -55 35 -7 10 -22 17 -33 17
-10 0 -21 7 -24 15 -4 8 -10 12 -15 9 -5 -3 -9 -1 -9 5 0 6 -19 20 -42 31 -24
11 -63 32 -88 45 -25 13 -50 25 -56 25 -6 0 -21 14 -34 30 -13 17 -29 30 -37
30 -7 0 -35 11 -62 24 -76 39 -162 165 -144 213 3 8 0 19 -8 24 -10 6 -14 30
-13 93 1 87 14 136 46 170 10 11 18 30 18 42 0 13 7 27 17 32 9 5 24 29 33 53
13 35 21 44 38 42 12 -2 22 2 22 7 0 6 9 10 21 10 11 0 30 5 42 12 12 7 32 11
45 9 25 -3 72 23 72 39 0 6 -8 10 -17 10 -15 0 -15 2 -4 9 11 7 7 10 -15 14
-16 2 255 4 601 4 347 0 618 -2 604 -4 -25 -4 -26 -5 -16 -54 6 -30 15 -49 23
-49 19 0 18 -10 -2 -25 -18 -13 -32 -82 -33 -162 -1 -29 -5 -53 -10 -53 -12 0
-19 -35 -26 -120 -8 -103 -21 -181 -31 -188 -5 -4 -10 -24 -11 -46 -2 -21 -9
-44 -17 -50 -17 -14 -29 -63 -17 -70 10 -7 3 -44 -11 -63 -5 -7 -7 -17 -3 -22
7 -12 -12 -53 -30 -63 -7 -4 -10 -19 -7 -33 3 -18 0 -25 -9 -23 -8 2 -15 -7
-17 -19 -2 -13 -8 -23 -13 -23 -5 0 -9 -18 -9 -40 l0 -40 2205 0 2205 0 0
2935 c0 2905 0 2935 -20 2935 -26 0 -69 20 -103 47 -16 13 -39 23 -53 23 -22
0 -24 4 -24 48 0 58 26 138 47 146 11 4 14 2 10 -9 -4 -8 0 -27 8 -42 8 -15
15 -36 15 -45 0 -18 48 -44 96 -52 l24 -5 -2 932 c-1 513 -3 905 -5 872 l-4
-60 -44 2 c-52 2 -66 8 -59 27 3 8 -4 16 -20 20 -23 6 -24 9 -19 64 4 43 11
63 30 80 13 13 26 37 30 53 3 16 10 32 14 35 5 3 9 47 9 98 0 89 -1 93 -25
104 -14 6 -25 16 -25 22 0 5 -7 10 -15 10 -8 0 -15 9 -15 20 0 11 -8 29 -17
39 -10 11 -23 26 -30 33 -23 25 -38 34 -73 44 -26 7 -36 16 -38 34 -2 14 -8
30 -14 35 -8 7 -8 5 -3 -5 7 -12 6 -13 -7 -3 -8 7 -17 10 -21 7 -3 -3 -3 5 0
18 3 14 1 18 -4 11 -4 -6 -8 19 -9 60 0 66 -20 214 -23 175 -3 -49 -40 5 -41
59 0 32 -5 46 -20 55 -12 8 -20 24 -20 40 0 20 -5 28 -17 29 -10 1 -4 5 12 9
l30 8 -32 1 c-32 1 -44 -11 -23 -24 19 -12 10 -35 -17 -41 -16 -4 -33 -15 -40
-24 -12 -17 -81 -55 -88 -48 -2 1 -4 17 -6 33 -2 17 -7 35 -11 40 -4 6 -8 45
-10 87 -2 53 -6 74 -15 71 -18 -7 -21 29 -4 55 l14 23 18 -39 c23 -50 82 -98
141 -113 60 -16 123 1 178 48 49 42 70 89 70 155 0 83 -42 144 -129 188 -24
12 -40 25 -35 28 5 4 9 32 10 62 1 30 4 76 8 101 l7 47 107 6 c196 11 292 11
296 1 3 -5 5 0 5 13 l1 22 -486 0 c-414 0 -485 -2 -475 -14 6 -8 17 -42 23
-77 10 -54 13 -59 17 -35 4 17 10 29 15 28 17 -3 22 -215 6 -220 -15 -5 -12
-31 5 -49 17 -16 12 -51 -10 -68 -11 -9 -15 -29 -16 -87 -1 -31 -37 -28 -58 6
-53 82 -72 106 -86 106 -12 0 -15 17 -15 93 0 94 -27 235 -51 263 -8 10 -3 18
23 34 l33 20 -2332 0 -2333 0 0 -1596z m199 1577 c22 -14 16 -51 -28 -151 -22
-52 -41 -101 -41 -107 0 -7 -3 -13 -7 -13 -19 0 -28 53 -28 153 0 85 3 110 15
117 19 12 70 13 89 1z m5126 -397 c30 -33 32 -73 5 -107 -41 -52 -140 -21
-140 45 0 33 26 78 45 78 16 0 26 -25 19 -45 -5 -11 -2 -13 10 -9 14 5 21 30
17 57 -2 16 21 6 44 -19z m-4177 -626 c11 -15 4 -78 -9 -78 -15 0 -10 -50 6
-56 20 -8 19 -20 -2 -28 -9 -4 -20 -1 -25 6 -6 10 -8 9 -8 -3 0 -9 -10 -24
-21 -35 -12 -10 -25 -29 -30 -41 -7 -18 -16 -23 -44 -23 -39 0 -42 4 -20 26
18 19 21 57 11 148 -3 28 12 56 31 56 5 0 16 9 26 20 19 22 69 27 85 8z m1138
-335 c13 -14 24 -29 24 -34 0 -4 9 -10 20 -14 19 -6 32 -24 63 -90 8 -16 24
-39 36 -49 11 -11 21 -23 21 -27 0 -9 11 -23 67 -87 18 -20 33 -42 33 -48 0
-7 8 -14 19 -17 10 -2 25 -17 33 -33 8 -16 20 -28 26 -27 6 2 16 -15 22 -36 5
-21 21 -50 35 -65 14 -15 27 -37 28 -49 1 -12 5 -24 8 -27 4 -3 10 -16 14 -30
l8 -25 -28 28 c-15 15 -34 27 -41 27 -8 0 -21 18 -30 40 -9 22 -22 40 -29 40
-6 0 -20 9 -29 19 -10 11 -28 22 -42 25 -13 4 -24 13 -24 20 0 12 -24 36 -131
126 -20 16 -43 30 -51 30 -8 0 -23 6 -34 14 -15 12 -17 17 -6 27 14 15 16 75
3 83 -5 4 -28 34 -52 68 -28 42 -43 74 -44 99 -1 27 2 36 11 32 7 -2 18 6 25
19 11 20 14 21 17 5 2 -10 14 -29 28 -44z m-499 -1453 c15 -11 41 -20 60 -20
35 0 41 -16 12 -31 -49 -28 -106 -49 -129 -49 -20 0 -29 8 -42 36 -16 36 -16
37 9 60 32 29 57 30 90 4z m669 -394 c3 -14 12 -27 19 -30 16 -6 55 -77 55
-99 0 -8 9 -25 19 -39 29 -36 35 -72 17 -91 -9 -8 -16 -20 -16 -26 0 -27 -47
-5 -65 30 -8 15 -23 30 -34 34 -15 5 -20 19 -25 83 -4 42 -12 89 -17 104 -8
20 -8 30 3 42 19 22 37 19 44 -8z m-267 -46 l38 0 12 -57 c6 -31 11 -77 11
-102 1 -46 25 -91 49 -91 15 0 13 -11 -4 -34 -21 -28 -19 -49 4 -43 14 3 18 1
14 -10 -3 -8 -11 -12 -18 -9 -7 2 -18 -1 -24 -7 -7 -7 -24 -12 -39 -13 -15 -1
-47 -7 -71 -13 -31 -9 -47 -9 -54 -2 -8 8 -7 11 2 11 7 0 9 5 6 11 -4 6 -22 8
-45 4 -39 -7 -39 -7 -50 37 -13 48 -8 140 8 146 5 1 8 11 5 20 -2 10 5 26 16
36 12 11 21 30 21 44 0 30 73 111 78 87 2 -10 16 -15 41 -15z m-1057 -344 c-1
-19 -13 -51 -27 -71 -20 -30 -25 -50 -25 -96 0 -50 -3 -60 -22 -70 -16 -9 -23
-9 -26 0 -2 6 -11 11 -20 11 -10 0 -23 9 -30 20 -7 12 -8 20 -2 20 5 0 10 8
10 18 0 9 9 23 20 30 32 20 23 32 -20 28 -27 -3 -40 0 -40 8 0 7 6 13 13 14
19 1 73 20 60 21 -13 1 -5 41 8 41 5 0 9 11 9 24 0 25 22 50 34 38 4 -4 12 1
18 12 9 16 12 17 26 3 8 -9 15 -31 14 -51z m432 -260 c-3 -7 6 -27 21 -44 15
-18 23 -37 19 -46 -4 -10 0 -18 11 -22 9 -4 25 -27 36 -51 10 -24 23 -42 28
-39 11 7 41 -37 41 -59 0 -9 7 -18 15 -21 8 -4 15 -14 15 -25 0 -10 9 -23 19
-28 10 -6 24 -23 30 -38 14 -36 32 -64 54 -84 9 -9 17 -28 17 -41 0 -19 8 -29
28 -37 17 -7 33 -24 40 -45 15 -41 15 -46 -2 -46 -22 0 -64 39 -68 62 -2 13
-14 28 -27 35 -13 6 -28 19 -33 27 -7 12 -13 13 -27 4 -16 -10 -25 -5 -60 30
-22 22 -41 43 -41 46 0 3 -11 16 -25 30 -30 30 -32 65 -4 100 22 28 18 46 -11
46 -13 0 -22 -10 -27 -31 l-9 -31 -51 56 c-36 39 -57 72 -68 108 -17 58 -20
158 -5 158 6 0 10 -6 10 -12 0 -9 3 -9 9 1 5 8 18 12 30 8 12 -3 21 -1 21 5 0
5 4 7 10 3 5 -3 7 -12 4 -19z m3926 -1001 c14 -17 12 -22 -137 -324 -30 -63
-73 -153 -95 -200 -64 -139 -207 -424 -222 -444 -8 -10 -47 -28 -88 -41 -41
-13 -91 -36 -112 -50 -21 -14 -49 -26 -62 -26 -12 0 -35 -5 -51 -11 -15 -6
-68 -17 -118 -25 -49 -8 -148 -25 -220 -40 -71 -14 -155 -29 -185 -34 -30 -5
-71 -14 -90 -20 -48 -14 -371 -13 -407 1 -15 6 -48 13 -73 16 -25 2 -70 10
-100 18 -30 7 -84 16 -120 20 -59 5 -138 18 -197 31 -19 4 -23 11 -23 44 0 22
11 64 24 95 24 54 26 55 66 55 23 0 79 -11 124 -24 86 -26 353 -51 531 -51 87
1 189 16 230 35 39 19 110 40 133 40 13 0 33 5 45 12 12 6 35 15 52 19 86 22
152 58 212 115 7 7 29 22 49 35 20 12 47 32 61 45 14 13 35 26 47 30 11 4 23
10 26 15 5 6 44 38 105 84 11 9 47 36 79 60 33 25 63 45 67 45 22 0 349 350
349 374 0 7 47 82 65 103 13 16 20 16 35 -2z m-691 -1406 c35 -12 36 -16 16
-43 -8 -11 -15 -29 -15 -40 0 -12 -11 -43 -24 -71 -42 -87 -107 -247 -113
-279 -3 -17 -14 -47 -23 -66 -10 -19 -34 -80 -54 -135 -20 -55 -42 -107 -49
-116 -13 -17 -65 -38 -112 -45 -16 -3 -43 -9 -60 -14 -41 -12 -121 -19 -341
-31 -268 -15 -284 -13 -284 39 0 33 -46 133 -88 190 -16 23 -35 55 -42 71 -7
17 -16 28 -21 25 -5 -3 -9 4 -9 15 0 10 -4 21 -8 23 -16 7 -52 67 -52 88 0 13
5 40 11 60 9 31 9 44 -4 69 -8 17 -18 44 -22 61 -6 28 -9 30 -55 30 -39 0 -52
4 -64 22 -9 12 -16 26 -16 30 0 5 60 6 133 4 475 -17 568 -18 581 -7 7 6 101
18 207 26 305 24 325 28 414 85 36 22 51 24 94 9z m-3346 -288 c4 -16 11 -19
37 -15 l32 6 -7 -51 c-8 -57 -4 -59 51 -39 30 10 38 9 82 -15 28 -15 57 -27
66 -27 10 0 15 -4 12 -9 -3 -5 1 -11 9 -15 8 -3 20 -17 27 -31 8 -19 22 -27
50 -31 22 -4 43 -14 48 -25 13 -23 13 -137 -1 -218 -12 -74 -18 -89 -30 -70
-6 11 -9 9 -9 -7 0 -26 -40 -48 -85 -47 -33 1 -34 0 -28 -31 3 -17 10 -39 14
-48 5 -9 9 -34 9 -56 0 -21 3 -41 6 -45 3 -3 8 -26 10 -51 l3 -46 -64 0 -64 0
-10 -37 c-6 -20 -8 -40 -5 -44 2 -4 0 -27 -5 -50 -6 -27 -6 -49 0 -61 5 -9 14
-40 19 -68 9 -45 7 -54 -10 -72 -26 -28 -27 -88 -2 -89 14 -1 13 -2 -3 -7
l-20 -5 20 -8 c11 -4 -178 -7 -420 -7 -242 0 -429 3 -416 5 19 4 21 7 10 14
-9 6 10 9 56 10 65 2 67 2 25 9 -40 6 -41 7 -12 8 18 1 31 6 27 11 -3 5 4 16
16 24 15 11 21 28 23 64 5 91 89 223 141 223 22 0 25 4 25 36 0 58 23 180 30
159 6 -17 7 -17 26 2 10 11 27 23 36 26 27 10 58 68 58 109 0 27 -6 42 -25 56
-25 20 -31 45 -18 78 6 16 7 16 14 -2 7 -18 8 -18 8 3 1 23 27 78 49 101 6 7
12 26 12 41 0 20 7 29 29 38 21 8 32 8 40 0 8 -8 11 -8 11 1 0 6 8 11 18 10
63 -5 76 8 42 42 -22 22 -49 26 -51 8 -1 -7 -5 -2 -9 12 -11 33 -12 50 -2 49
32 -5 62 41 57 91 -1 19 4 45 12 58 8 13 12 30 9 38 -3 8 1 14 8 14 8 0 16 -9
19 -19z m2897 -913 c-1 -46 -31 -174 -71 -300 l-34 -108 -162 0 c-90 0 -164 3
-164 8 -1 4 -3 16 -5 27 -6 37 -26 149 -34 195 -24 124 -26 140 -18 154 7 13
30 16 126 16 64 1 169 9 232 19 63 11 118 19 123 20 4 1 7 -14 7 -31z m-2900
-681 l0 -113 -55 -2 c-65 -2 -85 18 -85 85 0 56 30 87 78 78 31 -6 32 -5 32
30 0 24 4 35 15 35 12 0 15 -19 15 -113z m-191 36 c11 -10 24 -33 27 -50 l7
-33 -57 0 c-59 0 -67 -8 -40 -35 16 -16 28 -16 67 0 12 5 17 3 17 -8 0 -34
-91 -38 -114 -5 -25 35 -20 94 9 123 29 29 55 32 84 8z m519 -7 c8 -7 16 -31
19 -52 7 -52 -24 -94 -70 -94 -38 0 -50 7 -66 37 -24 46 -8 106 32 123 26 11
67 4 85 -14z m400 -4 c6 -9 12 -43 12 -77 l0 -62 -57 1 c-54 1 -58 3 -68 30
-8 24 -6 31 14 47 13 10 37 19 53 19 23 0 29 4 26 18 -4 20 -45 29 -61 13 -16
-16 -37 -13 -31 3 7 19 53 36 79 29 11 -3 26 -12 33 -21z m402 16 c54 3 75 1
85 -9 14 -14 13 -141 -2 -146 -8 -3 -13 16 -15 64 l-3 68 -30 0 -30 0 -3 -67
c-2 -52 -6 -68 -17 -68 -12 0 -15 14 -15 59 0 62 -14 86 -47 79 -14 -3 -19
-16 -23 -67 -3 -39 -10 -66 -17 -69 -10 -3 -13 17 -13 78 0 73 2 81 18 76 9
-3 24 -1 32 4 8 5 24 6 35 3 11 -4 31 -6 45 -5z m504 -33 c12 -33 6 -82 -14
-103 -27 -29 -80 -29 -106 -1 -39 44 -15 132 40 141 27 5 72 -16 80 -37z
m1035 28 c11 -10 24 -33 27 -50 l7 -33 -57 0 c-48 0 -57 -3 -54 -16 5 -29 34
-40 62 -24 32 16 49 4 22 -16 -43 -31 -108 -8 -120 42 -20 77 57 143 113 97z
m388 -5 c20 -16 27 -75 13 -108 -13 -32 -45 -46 -80 -37 -17 4 -20 0 -20 -29
0 -24 -5 -34 -15 -34 -12 0 -15 19 -15 111 0 104 1 111 19 106 10 -2 25 -1 32
4 15 9 46 3 66 -13z m353 -18 c30 -57 -6 -130 -65 -130 -82 0 -100 130 -22
159 28 10 74 -5 87 -29z"/>
</g>
</svg>
